<svg width="512" height="512" viewBox="0 0 135.467 135.467" xmlns:xlink="http://www.w3.org/1999/xlink" xmlns="http://www.w3.org/2000/svg"><defs><linearGradient id="prefix__b"><stop offset="0" stop-color="#00fff1"/><stop offset="1" stop-color="#3e5a86"/></linearGradient><linearGradient id="prefix__a"><stop offset="0" stop-color="#00fff1"/><stop offset=".5" stop-color="#3e5887" stop-opacity=".528"/><stop offset="1" stop-color="#7dfefc"/></linearGradient><linearGradient xlink:href="#prefix__a" id="prefix__d" x1="337.295" y1="97.428" x2="390.427" y2="68.384" gradientUnits="userSpaceOnUse" gradientTransform="matrix(.7096 0 0 .7096 -211.722 -4.15)" spreadMethod="pad"/><linearGradient xlink:href="#prefix__a" id="prefix__e" gradientUnits="userSpaceOnUse" gradientTransform="matrix(.7096 0 0 .7096 -211.722 -3.368)" x1="337.295" y1="97.428" x2="390.427" y2="68.384" spreadMethod="pad"/><linearGradient xlink:href="#prefix__a" id="prefix__f" gradientUnits="userSpaceOnUse" gradientTransform="matrix(.7096 0 0 .7096 -211.722 -2.31)" x1="337.295" y1="97.428" x2="390.427" y2="68.384" spreadMethod="pad"/><linearGradient xlink:href="#prefix__a" id="prefix__g" gradientUnits="userSpaceOnUse" gradientTransform="matrix(.7096 0 0 .7096 -211.722 -1.251)" x1="337.295" y1="97.428" x2="390.427" y2="68.384" spreadMethod="pad"/><linearGradient xlink:href="#prefix__b" id="prefix__c" x1="74.419" y1="62.501" x2="111.17" y2="62.501" gradientUnits="userSpaceOnUse" gradientTransform="translate(2.646)"/><linearGradient xlink:href="#prefix__b" id="prefix__h" gradientUnits="userSpaceOnUse" x1="74.419" y1="62.501" x2="111.17" y2="62.501"/><linearGradient xlink:href="#prefix__a" id="prefix__i" gradientUnits="userSpaceOnUse" gradientTransform="matrix(.7096 0 0 .7096 -211.722 -4.15)" x1="337.295" y1="97.428" x2="390.427" y2="68.384" spreadMethod="pad"/><linearGradient xlink:href="#prefix__a" id="prefix__j" gradientUnits="userSpaceOnUse" gradientTransform="matrix(.7096 0 0 .7096 -211.722 -3.368)" x1="337.295" y1="97.428" x2="390.427" y2="68.384" spreadMethod="pad"/><linearGradient xlink:href="#prefix__a" id="prefix__k" gradientUnits="userSpaceOnUse" gradientTransform="matrix(.7096 0 0 .7096 -211.722 -2.31)" x1="337.295" y1="97.428" x2="390.427" y2="68.384" spreadMethod="pad"/><linearGradient xlink:href="#prefix__a" id="prefix__l" gradientUnits="userSpaceOnUse" gradientTransform="matrix(.7096 0 0 .7096 -211.722 -1.251)" x1="337.295" y1="97.428" x2="390.427" y2="68.384" spreadMethod="pad"/><linearGradient xlink:href="#prefix__a" id="prefix__m" gradientUnits="userSpaceOnUse" gradientTransform="matrix(.7096 0 0 .7096 -211.722 -4.15)" x1="337.295" y1="97.428" x2="390.427" y2="68.384" spreadMethod="pad"/><linearGradient xlink:href="#prefix__a" id="prefix__n" gradientUnits="userSpaceOnUse" gradientTransform="matrix(.7096 0 0 .7096 -211.722 -3.368)" x1="337.295" y1="97.428" x2="390.427" y2="68.384" spreadMethod="pad"/><linearGradient xlink:href="#prefix__a" id="prefix__o" gradientUnits="userSpaceOnUse" gradientTransform="matrix(.7096 0 0 .7096 -211.722 -2.31)" x1="337.295" y1="97.428" x2="390.427" y2="68.384" spreadMethod="pad"/><linearGradient xlink:href="#prefix__a" id="prefix__p" gradientUnits="userSpaceOnUse" gradientTransform="matrix(.7096 0 0 .7096 -211.722 -1.251)" x1="337.295" y1="97.428" x2="390.427" y2="68.384" spreadMethod="pad"/><linearGradient xlink:href="#prefix__a" id="prefix__q" gradientUnits="userSpaceOnUse" gradientTransform="matrix(.7096 0 0 .7096 -211.722 -4.15)" x1="337.295" y1="97.428" x2="390.427" y2="68.384" spreadMethod="pad"/><linearGradient xlink:href="#prefix__a" id="prefix__r" gradientUnits="userSpaceOnUse" gradientTransform="matrix(.7096 0 0 .7096 -211.722 -3.368)" x1="337.295" y1="97.428" x2="390.427" y2="68.384" spreadMethod="pad"/><linearGradient xlink:href="#prefix__a" id="prefix__s" gradientUnits="userSpaceOnUse" gradientTransform="matrix(.7096 0 0 .7096 -211.722 -2.31)" x1="337.295" y1="97.428" x2="390.427" y2="68.384" spreadMethod="pad"/><linearGradient xlink:href="#prefix__a" id="prefix__u" gradientUnits="userSpaceOnUse" gradientTransform="matrix(.7096 0 0 .7096 -211.722 -1.251)" x1="337.295" y1="97.428" x2="390.427" y2="68.384" spreadMethod="pad"/><linearGradient xlink:href="#prefix__a" id="prefix__z" gradientUnits="userSpaceOnUse" gradientTransform="matrix(.7096 0 0 .7096 -211.722 -4.15)" x1="337.295" y1="97.428" x2="390.427" y2="68.384" spreadMethod="pad"/><linearGradient xlink:href="#prefix__a" id="prefix__A" gradientUnits="userSpaceOnUse" gradientTransform="matrix(.7096 0 0 .7096 -211.722 -3.368)" x1="337.295" y1="97.428" x2="390.427" y2="68.384" spreadMethod="pad"/><linearGradient xlink:href="#prefix__a" id="prefix__B" gradientUnits="userSpaceOnUse" gradientTransform="matrix(.7096 0 0 .7096 -211.722 -2.31)" x1="337.295" y1="97.428" x2="390.427" y2="68.384" spreadMethod="pad"/><linearGradient xlink:href="#prefix__a" id="prefix__C" gradientUnits="userSpaceOnUse" gradientTransform="matrix(.7096 0 0 .7096 -211.722 -1.251)" x1="337.295" y1="97.428" x2="390.427" y2="68.384" spreadMethod="pad"/><linearGradient xlink:href="#prefix__a" id="prefix__v" gradientUnits="userSpaceOnUse" gradientTransform="matrix(.7096 0 0 .7096 -211.722 -4.15)" x1="337.295" y1="97.428" x2="390.427" y2="68.384" spreadMethod="pad"/><linearGradient xlink:href="#prefix__a" id="prefix__w" gradientUnits="userSpaceOnUse" gradientTransform="matrix(.7096 0 0 .7096 -211.722 -3.368)" x1="337.295" y1="97.428" x2="390.427" y2="68.384" spreadMethod="pad"/><linearGradient xlink:href="#prefix__a" id="prefix__x" gradientUnits="userSpaceOnUse" gradientTransform="matrix(.7096 0 0 .7096 -211.722 -2.31)" x1="337.295" y1="97.428" x2="390.427" y2="68.384" spreadMethod="pad"/><linearGradient xlink:href="#prefix__a" id="prefix__y" gradientUnits="userSpaceOnUse" gradientTransform="matrix(.7096 0 0 .7096 -211.722 -1.251)" x1="337.295" y1="97.428" x2="390.427" y2="68.384" spreadMethod="pad"/><linearGradient xlink:href="#prefix__a" id="prefix__D" gradientUnits="userSpaceOnUse" gradientTransform="matrix(.7096 0 0 .7096 -211.722 -4.15)" x1="337.295" y1="97.428" x2="390.427" y2="68.384" spreadMethod="pad"/><linearGradient xlink:href="#prefix__a" id="prefix__E" gradientUnits="userSpaceOnUse" gradientTransform="matrix(.7096 0 0 .7096 -211.722 -3.368)" x1="337.295" y1="97.428" x2="390.427" y2="68.384" spreadMethod="pad"/><linearGradient xlink:href="#prefix__a" id="prefix__F" gradientUnits="userSpaceOnUse" gradientTransform="matrix(.7096 0 0 .7096 -211.722 -2.31)" x1="337.295" y1="97.428" x2="390.427" y2="68.384" spreadMethod="pad"/><linearGradient xlink:href="#prefix__a" id="prefix__G" gradientUnits="userSpaceOnUse" gradientTransform="matrix(.7096 0 0 .7096 -211.722 -1.251)" x1="337.295" y1="97.428" x2="390.427" y2="68.384" spreadMethod="pad"/><linearGradient xlink:href="#prefix__a" id="prefix__H" gradientUnits="userSpaceOnUse" gradientTransform="matrix(.7096 0 0 .7096 -211.722 -1.251)" x1="337.295" y1="97.428" x2="390.427" y2="68.384" spreadMethod="pad"/><linearGradient xlink:href="#prefix__a" id="prefix__t" gradientUnits="userSpaceOnUse" gradientTransform="matrix(.7096 0 0 .7096 -211.722 -1.251)" x1="337.295" y1="97.428" x2="390.427" y2="68.384" spreadMethod="pad"/></defs><path fill="none" paint-order="markers fill stroke" d="M0 0h135.467v135.467H0z"/><path fill="#333" paint-order="markers fill stroke" d="M228.01 5.233h148.837v125.002H228.01z"/><text style="line-height:1.25" x="76.016" y="69.007" font-weight="400" font-size="17.451" font-family="sans-serif" fill="url(#prefix__c)" stroke-width=".436" transform="translate(228.01 5.233)"><tspan x="76.016" y="69.007">artis</tspan></text><path style="mix-blend-mode:normal" d="M46.453 44.376l-16.986 9.69-1.808 1.113v6.384s18.755 10.652 15.42 8.782a122.301 122.301 0 003.334 1.87l9.457-5.454 4.467-2.577.11 5.524-.001 2.27-6.9 3.999c-3.795 2.199-6.985 3.996-7.088 3.994-.103-.002-3.271-1.789-7.04-3.97l-6.853-3.966-.094-2.288-.094-2.29-2.347-1.364-2.347-1.365-.05 5.004c-.027 2.752.015 5.064.094 5.14.08.075 3.692 2.185 8.03 4.688 4.337 2.503 8.51 4.914 9.274 5.358 1.163.676 1.455.775 1.785.604.217-.112 3.21-1.84 3.21-1.84l7.134-4.133 6.243-3.614 1.924-1.116V55.162l-3.427-1.9-4.533 2.497 3.734 2.043-14.651 8.79L35.333 60.1l-2.768-1.829 13.898-8.2 1.876.92 4.616-2.742z" fill="url(#prefix__d)" transform="translate(230.656 1.25)"/><path style="mix-blend-mode:normal" d="M46.453 45.157l-16.986 9.69-1.808 1.114v6.384s18.755 10.652 15.42 8.781a122.301 122.301 0 003.334 1.872l9.457-5.455 4.467-2.577.11 5.524-.001 2.27-6.9 3.999c-3.795 2.199-6.985 3.996-7.088 3.994-.103-.002-3.271-1.789-7.04-3.97l-6.853-3.966-.094-2.288-.094-2.29-2.347-1.364-2.347-1.365-.05 5.004c-.027 2.751.015 5.064.094 5.14.08.075 3.692 2.185 8.03 4.688 4.336 2.503 8.51 4.914 9.274 5.358 1.163.676 1.455.775 1.785.604.216-.112 3.21-1.84 3.21-1.84l7.134-4.134 6.243-3.613 1.924-1.116V55.944l-3.427-1.9-4.533 2.497 3.734 2.043-14.651 8.79-11.117-6.492-2.768-1.829 13.898-8.2 1.876.92 4.616-2.742z" fill="url(#prefix__e)" transform="translate(230.656 1.25)"/><path style="mix-blend-mode:normal" d="M46.453 46.216l-16.986 9.69-1.808 1.113v6.384s18.755 10.653 15.42 8.782a122.301 122.301 0 003.334 1.87l9.457-5.454 4.467-2.577.11 5.524-.001 2.27-6.9 3.999c-3.795 2.199-6.985 3.996-7.088 3.994-.103-.002-3.271-1.789-7.04-3.97l-6.853-3.965-.094-2.29-.094-2.288-2.347-1.365-2.347-1.364-.05 5.003c-.027 2.752.015 5.065.094 5.14.08.076 3.692 2.185 8.03 4.688 4.336 2.503 8.51 4.914 9.274 5.359 1.163.675 1.455.774 1.785.604.216-.113 3.21-1.84 3.21-1.84l7.134-4.134 6.243-3.613 1.924-1.117V57.002l-3.427-1.9-4.533 2.498 3.734 2.042-14.651 8.791-11.117-6.493-2.768-1.828 13.898-8.201 1.876.92 4.616-2.742z" fill="url(#prefix__f)" transform="translate(230.656 1.25)"/><path style="mix-blend-mode:normal" d="M46.453 47.274l-16.986 9.69-1.808 1.114v6.383s18.755 10.653 15.42 8.782a122.301 122.301 0 003.334 1.871l9.457-5.455 4.467-2.576.11 5.523-.001 2.271-6.9 3.998c-3.795 2.2-6.985 3.996-7.088 3.994-.103-.002-3.271-1.788-7.04-3.97l-6.853-3.965-.094-2.289-.094-2.289-2.347-1.364-2.347-1.365-.05 5.003c-.027 2.752.015 5.065.094 5.14.08.076 3.692 2.186 8.03 4.689 4.336 2.502 8.51 4.914 9.274 5.358 1.163.676 1.455.775 1.785.604.216-.112 3.21-1.84 3.21-1.84l7.134-4.134 6.243-3.613 1.924-1.116V58.06l-3.427-1.9-4.533 2.497 3.734 2.042-14.651 8.791L35.333 63l-2.768-1.83 13.898-8.2 1.876.92 4.616-2.741z" fill="url(#prefix__g)" transform="translate(230.656 1.25)"/><text style="line-height:1.25" x="73.37" y="69.007" font-weight="400" font-size="17.451" font-family="sans-serif" fill="url(#prefix__h)" stroke-width=".436" transform="translate(382.807 5.461)"><tspan x="73.37" y="69.007">artis</tspan></text><path style="mix-blend-mode:normal" d="M46.453 44.376l-16.986 9.69-1.808 1.113v6.384s18.755 10.652 15.42 8.782a122.301 122.301 0 003.334 1.87l9.457-5.454 4.467-2.577.11 5.524-.001 2.27-6.9 3.999c-3.795 2.199-6.985 3.996-7.088 3.994-.103-.002-3.271-1.789-7.04-3.97l-6.853-3.966-.094-2.288-.094-2.29-2.347-1.364-2.347-1.365-.05 5.004c-.027 2.752.015 5.064.094 5.14.08.075 3.692 2.185 8.03 4.688 4.337 2.503 8.51 4.914 9.274 5.358 1.163.676 1.455.775 1.785.604.217-.112 3.21-1.84 3.21-1.84l7.134-4.133 6.243-3.614 1.924-1.116V55.162l-3.427-1.9-4.533 2.497 3.734 2.043-14.651 8.79L35.333 60.1l-2.768-1.829 13.898-8.2 1.876.92 4.616-2.742z" fill="url(#prefix__i)" transform="translate(382.807 1.479)"/><path style="mix-blend-mode:normal" d="M46.453 45.157l-16.986 9.69-1.808 1.114v6.384s18.755 10.652 15.42 8.781a122.301 122.301 0 003.334 1.872l9.457-5.455 4.467-2.577.11 5.524-.001 2.27-6.9 3.999c-3.795 2.199-6.985 3.996-7.088 3.994-.103-.002-3.271-1.789-7.04-3.97l-6.853-3.966-.094-2.288-.094-2.29-2.347-1.364-2.347-1.365-.05 5.004c-.027 2.751.015 5.064.094 5.14.08.075 3.692 2.185 8.03 4.688 4.336 2.503 8.51 4.914 9.274 5.358 1.163.676 1.455.775 1.785.604.216-.112 3.21-1.84 3.21-1.84l7.134-4.134 6.243-3.613 1.924-1.116V55.944l-3.427-1.9-4.533 2.497 3.734 2.043-14.651 8.79-11.117-6.492-2.768-1.829 13.898-8.2 1.876.92 4.616-2.742z" fill="url(#prefix__j)" transform="translate(382.807 1.479)"/><path style="mix-blend-mode:normal" d="M46.453 46.216l-16.986 9.69-1.808 1.113v6.384s18.755 10.653 15.42 8.782a122.301 122.301 0 003.334 1.87l9.457-5.454 4.467-2.577.11 5.524-.001 2.27-6.9 3.999c-3.795 2.199-6.985 3.996-7.088 3.994-.103-.002-3.271-1.789-7.04-3.97l-6.853-3.965-.094-2.29-.094-2.288-2.347-1.365-2.347-1.364-.05 5.003c-.027 2.752.015 5.065.094 5.14.08.076 3.692 2.185 8.03 4.688 4.336 2.503 8.51 4.914 9.274 5.359 1.163.675 1.455.774 1.785.604.216-.113 3.21-1.84 3.21-1.84l7.134-4.134 6.243-3.613 1.924-1.117V57.002l-3.427-1.9-4.533 2.498 3.734 2.042-14.651 8.791-11.117-6.493-2.768-1.828 13.898-8.201 1.876.92 4.616-2.742z" fill="url(#prefix__k)" transform="translate(382.807 1.479)"/><path style="mix-blend-mode:normal" d="M46.453 47.274l-16.986 9.69-1.808 1.114v6.383s18.755 10.653 15.42 8.782a122.301 122.301 0 003.334 1.871l9.457-5.455 4.467-2.576.11 5.523-.001 2.271-6.9 3.998c-3.795 2.2-6.985 3.996-7.088 3.994-.103-.002-3.271-1.788-7.04-3.97l-6.853-3.965-.094-2.289-.094-2.289-2.347-1.364-2.347-1.365-.05 5.003c-.027 2.752.015 5.065.094 5.14.08.076 3.692 2.186 8.03 4.689 4.336 2.502 8.51 4.914 9.274 5.358 1.163.676 1.455.775 1.785.604.216-.112 3.21-1.84 3.21-1.84l7.134-4.134 6.243-3.613 1.924-1.116V58.06l-3.427-1.9-4.533 2.497 3.734 2.042-14.651 8.791L35.333 63l-2.768-1.83 13.898-8.2 1.876.92 4.616-2.741z" fill="url(#prefix__l)" transform="translate(382.807 1.479)"/><g><path style="mix-blend-mode:normal" d="M46.453 44.376l-16.986 9.69-1.808 1.113v6.384s18.755 10.652 15.42 8.782a122.301 122.301 0 003.334 1.87l9.457-5.454 4.467-2.577.11 5.524-.001 2.27-6.9 3.999c-3.795 2.199-6.985 3.996-7.088 3.994-.103-.002-3.271-1.789-7.04-3.97l-6.853-3.966-.094-2.288-.094-2.29-2.347-1.364-2.347-1.365-.05 5.004c-.027 2.752.015 5.064.094 5.14.08.075 3.692 2.185 8.03 4.688 4.337 2.503 8.51 4.914 9.274 5.358 1.163.676 1.455.775 1.785.604.217-.112 3.21-1.84 3.21-1.84l7.134-4.133 6.243-3.614 1.924-1.116V55.162l-3.427-1.9-4.533 2.497 3.734 2.043-14.651 8.79L35.333 60.1l-2.768-1.829 13.898-8.2 1.876.92 4.616-2.742z" fill="url(#prefix__m)" transform="matrix(.22087 0 0 .22087 232.072 2.552)"/><path style="mix-blend-mode:normal" d="M46.453 45.157l-16.986 9.69-1.808 1.114v6.384s18.755 10.652 15.42 8.781a122.301 122.301 0 003.334 1.872l9.457-5.455 4.467-2.577.11 5.524-.001 2.27-6.9 3.999c-3.795 2.199-6.985 3.996-7.088 3.994-.103-.002-3.271-1.789-7.04-3.97l-6.853-3.966-.094-2.288-.094-2.29-2.347-1.364-2.347-1.365-.05 5.004c-.027 2.751.015 5.064.094 5.14.08.075 3.692 2.185 8.03 4.688 4.336 2.503 8.51 4.914 9.274 5.358 1.163.676 1.455.775 1.785.604.216-.112 3.21-1.84 3.21-1.84l7.134-4.134 6.243-3.613 1.924-1.116V55.944l-3.427-1.9-4.533 2.497 3.734 2.043-14.651 8.79-11.117-6.492-2.768-1.829 13.898-8.2 1.876.92 4.616-2.742z" fill="url(#prefix__n)" transform="matrix(.22087 0 0 .22087 232.072 2.552)"/><path style="mix-blend-mode:normal" d="M46.453 46.216l-16.986 9.69-1.808 1.113v6.384s18.755 10.653 15.42 8.782a122.301 122.301 0 003.334 1.87l9.457-5.454 4.467-2.577.11 5.524-.001 2.27-6.9 3.999c-3.795 2.199-6.985 3.996-7.088 3.994-.103-.002-3.271-1.789-7.04-3.97l-6.853-3.965-.094-2.29-.094-2.288-2.347-1.365-2.347-1.364-.05 5.003c-.027 2.752.015 5.065.094 5.14.08.076 3.692 2.185 8.03 4.688 4.336 2.503 8.51 4.914 9.274 5.359 1.163.675 1.455.774 1.785.604.216-.113 3.21-1.84 3.21-1.84l7.134-4.134 6.243-3.613 1.924-1.117V57.002l-3.427-1.9-4.533 2.498 3.734 2.042-14.651 8.791-11.117-6.493-2.768-1.828 13.898-8.201 1.876.92 4.616-2.742z" fill="url(#prefix__o)" transform="matrix(.22087 0 0 .22087 232.072 2.552)"/><path style="mix-blend-mode:normal" d="M46.453 47.274l-16.986 9.69-1.808 1.114v6.383s18.755 10.653 15.42 8.782a122.301 122.301 0 003.334 1.871l9.457-5.455 4.467-2.576.11 5.523-.001 2.271-6.9 3.998c-3.795 2.2-6.985 3.996-7.088 3.994-.103-.002-3.271-1.788-7.04-3.97l-6.853-3.965-.094-2.289-.094-2.289-2.347-1.364-2.347-1.365-.05 5.003c-.027 2.752.015 5.065.094 5.14.08.076 3.692 2.186 8.03 4.689 4.336 2.502 8.51 4.914 9.274 5.358 1.163.676 1.455.775 1.785.604.216-.112 3.21-1.84 3.21-1.84l7.134-4.134 6.243-3.613 1.924-1.116V58.06l-3.427-1.9-4.533 2.497 3.734 2.042-14.651 8.791L35.333 63l-2.768-1.83 13.898-8.2 1.876.92 4.616-2.741z" fill="url(#prefix__p)" transform="matrix(.22087 0 0 .22087 232.072 2.552)"/></g><g><path style="mix-blend-mode:normal" d="M46.453 44.376l-16.986 9.69-1.808 1.113v6.384s18.755 10.652 15.42 8.782a122.301 122.301 0 003.334 1.87l9.457-5.454 4.467-2.577.11 5.524-.001 2.27-6.9 3.999c-3.795 2.199-6.985 3.996-7.088 3.994-.103-.002-3.271-1.789-7.04-3.97l-6.853-3.966-.094-2.288-.094-2.29-2.347-1.364-2.347-1.365-.05 5.004c-.027 2.752.015 5.064.094 5.14.08.075 3.692 2.185 8.03 4.688 4.337 2.503 8.51 4.914 9.274 5.358 1.163.676 1.455.775 1.785.604.217-.112 3.21-1.84 3.21-1.84l7.134-4.133 6.243-3.614 1.924-1.116V55.162l-3.427-1.9-4.533 2.497 3.734 2.043-14.651 8.79L35.333 60.1l-2.768-1.829 13.898-8.2 1.876.92 4.616-2.742z" fill="url(#prefix__q)" transform="matrix(.53332 0 0 .53332 223.44 -1.57)"/><path style="mix-blend-mode:normal" d="M46.453 45.157l-16.986 9.69-1.808 1.114v6.384s18.755 10.652 15.42 8.781a122.301 122.301 0 003.334 1.872l9.457-5.455 4.467-2.577.11 5.524-.001 2.27-6.9 3.999c-3.795 2.199-6.985 3.996-7.088 3.994-.103-.002-3.271-1.789-7.04-3.97l-6.853-3.966-.094-2.288-.094-2.29-2.347-1.364-2.347-1.365-.05 5.004c-.027 2.751.015 5.064.094 5.14.08.075 3.692 2.185 8.03 4.688 4.336 2.503 8.51 4.914 9.274 5.358 1.163.676 1.455.775 1.785.604.216-.112 3.21-1.84 3.21-1.84l7.134-4.134 6.243-3.613 1.924-1.116V55.944l-3.427-1.9-4.533 2.497 3.734 2.043-14.651 8.79-11.117-6.492-2.768-1.829 13.898-8.2 1.876.92 4.616-2.742z" fill="url(#prefix__r)" transform="matrix(.53332 0 0 .53332 223.44 -1.57)"/><path style="mix-blend-mode:normal" d="M46.453 46.216l-16.986 9.69-1.808 1.113v6.384s18.755 10.653 15.42 8.782a122.301 122.301 0 003.334 1.87l9.457-5.454 4.467-2.577.11 5.524-.001 2.27-6.9 3.999c-3.795 2.199-6.985 3.996-7.088 3.994-.103-.002-3.271-1.789-7.04-3.97l-6.853-3.965-.094-2.29-.094-2.288-2.347-1.365-2.347-1.364-.05 5.003c-.027 2.752.015 5.065.094 5.14.08.076 3.692 2.185 8.03 4.688 4.336 2.503 8.51 4.914 9.274 5.359 1.163.675 1.455.774 1.785.604.216-.113 3.21-1.84 3.21-1.84l7.134-4.134 6.243-3.613 1.924-1.117V57.002l-3.427-1.9-4.533 2.498 3.734 2.042-14.651 8.791-11.117-6.493-2.768-1.828 13.898-8.201 1.876.92 4.616-2.742z" fill="url(#prefix__s)" transform="matrix(.53332 0 0 .53332 223.44 -1.57)"/><path style="mix-blend-mode:normal" d="M46.453 47.274l-16.986 9.69-1.808 1.114v6.383s18.755 10.653 15.42 8.782a122.301 122.301 0 003.334 1.871l9.457-5.455 4.467-2.576.11 5.523-.001 2.271-6.9 3.998c-3.795 2.2-6.985 3.996-7.088 3.994-.103-.002-3.271-1.788-7.04-3.97l-6.853-3.965-.094-2.289-.094-2.289-2.347-1.364-2.347-1.365-.05 5.003c-.027 2.752.015 5.065.094 5.14.08.076 3.692 2.186 8.03 4.689 4.336 2.502 8.51 4.914 9.274 5.358 1.163.676 1.455.775 1.785.604.216-.112 3.21-1.84 3.21-1.84l7.134-4.134 6.243-3.613 1.924-1.116V58.06l-3.427-1.9-4.533 2.497 3.734 2.042-14.651 8.791L35.333 63l-2.768-1.83 13.898-8.2 1.876.92 4.616-2.741z" fill="url(#prefix__t)" transform="matrix(.53332 0 0 .53332 223.44 -1.57)"/><path style="mix-blend-mode:normal" d="M46.453 47.274l-16.986 9.69-1.808 1.114v6.383s18.755 10.653 15.42 8.782a122.301 122.301 0 003.334 1.871l9.457-5.455 4.467-2.576.11 5.523-.001 2.271-6.9 3.998c-3.795 2.2-6.985 3.996-7.088 3.994-.103-.002-3.271-1.788-7.04-3.97l-6.853-3.965-.094-2.289-.094-2.289-2.347-1.364-2.347-1.365-.05 5.003c-.027 2.752.015 5.065.094 5.14.08.076 3.692 2.186 8.03 4.689 4.336 2.502 8.51 4.914 9.274 5.358 1.163.676 1.455.775 1.785.604.216-.112 3.21-1.84 3.21-1.84l7.134-4.134 6.243-3.613 1.924-1.116V58.06l-3.427-1.9-4.533 2.497 3.734 2.042-14.651 8.791L35.333 63l-2.768-1.83 13.898-8.2 1.876.92 4.616-2.741z" fill="url(#prefix__u)" transform="matrix(.53332 0 0 .53332 223.44 -1.57)"/></g><g><path style="mix-blend-mode:normal" d="M46.453 44.376l-16.986 9.69-1.808 1.113v6.384s18.755 10.652 15.42 8.782a122.301 122.301 0 003.334 1.87l9.457-5.454 4.467-2.577.11 5.524-.001 2.27-6.9 3.999c-3.795 2.199-6.985 3.996-7.088 3.994-.103-.002-3.271-1.789-7.04-3.97l-6.853-3.966-.094-2.288-.094-2.29-2.347-1.364-2.347-1.365-.05 5.004c-.027 2.752.015 5.064.094 5.14.08.075 3.692 2.185 8.03 4.688 4.337 2.503 8.51 4.914 9.274 5.358 1.163.676 1.455.775 1.785.604.217-.112 3.21-1.84 3.21-1.84l7.134-4.133 6.243-3.614 1.924-1.116V55.162l-3.427-1.9-4.533 2.497 3.734 2.043-14.651 8.79L35.333 60.1l-2.768-1.829 13.898-8.2 1.876.92 4.616-2.742z" fill="url(#prefix__v)" transform="matrix(.22087 0 0 .22087 384.223 2.78)"/><path style="mix-blend-mode:normal" d="M46.453 45.157l-16.986 9.69-1.808 1.114v6.384s18.755 10.652 15.42 8.781a122.301 122.301 0 003.334 1.872l9.457-5.455 4.467-2.577.11 5.524-.001 2.27-6.9 3.999c-3.795 2.199-6.985 3.996-7.088 3.994-.103-.002-3.271-1.789-7.04-3.97l-6.853-3.966-.094-2.288-.094-2.29-2.347-1.364-2.347-1.365-.05 5.004c-.027 2.751.015 5.064.094 5.14.08.075 3.692 2.185 8.03 4.688 4.336 2.503 8.51 4.914 9.274 5.358 1.163.676 1.455.775 1.785.604.216-.112 3.21-1.84 3.21-1.84l7.134-4.134 6.243-3.613 1.924-1.116V55.944l-3.427-1.9-4.533 2.497 3.734 2.043-14.651 8.79-11.117-6.492-2.768-1.829 13.898-8.2 1.876.92 4.616-2.742z" fill="url(#prefix__w)" transform="matrix(.22087 0 0 .22087 384.223 2.78)"/><path style="mix-blend-mode:normal" d="M46.453 46.216l-16.986 9.69-1.808 1.113v6.384s18.755 10.653 15.42 8.782a122.301 122.301 0 003.334 1.87l9.457-5.454 4.467-2.577.11 5.524-.001 2.27-6.9 3.999c-3.795 2.199-6.985 3.996-7.088 3.994-.103-.002-3.271-1.789-7.04-3.97l-6.853-3.965-.094-2.29-.094-2.288-2.347-1.365-2.347-1.364-.05 5.003c-.027 2.752.015 5.065.094 5.14.08.076 3.692 2.185 8.03 4.688 4.336 2.503 8.51 4.914 9.274 5.359 1.163.675 1.455.774 1.785.604.216-.113 3.21-1.84 3.21-1.84l7.134-4.134 6.243-3.613 1.924-1.117V57.002l-3.427-1.9-4.533 2.498 3.734 2.042-14.651 8.791-11.117-6.493-2.768-1.828 13.898-8.201 1.876.92 4.616-2.742z" fill="url(#prefix__x)" transform="matrix(.22087 0 0 .22087 384.223 2.78)"/><path style="mix-blend-mode:normal" d="M46.453 47.274l-16.986 9.69-1.808 1.114v6.383s18.755 10.653 15.42 8.782a122.301 122.301 0 003.334 1.871l9.457-5.455 4.467-2.576.11 5.523-.001 2.271-6.9 3.998c-3.795 2.2-6.985 3.996-7.088 3.994-.103-.002-3.271-1.788-7.04-3.97l-6.853-3.965-.094-2.289-.094-2.289-2.347-1.364-2.347-1.365-.05 5.003c-.027 2.752.015 5.065.094 5.14.08.076 3.692 2.186 8.03 4.689 4.336 2.502 8.51 4.914 9.274 5.358 1.163.676 1.455.775 1.785.604.216-.112 3.21-1.84 3.21-1.84l7.134-4.134 6.243-3.613 1.924-1.116V58.06l-3.427-1.9-4.533 2.497 3.734 2.042-14.651 8.791L35.333 63l-2.768-1.83 13.898-8.2 1.876.92 4.616-2.741z" fill="url(#prefix__y)" transform="matrix(.22087 0 0 .22087 384.223 2.78)"/></g><g><path style="mix-blend-mode:normal" d="M46.453 44.376l-16.986 9.69-1.808 1.113v6.384s18.755 10.652 15.42 8.782a122.301 122.301 0 003.334 1.87l9.457-5.454 4.467-2.577.11 5.524-.001 2.27-6.9 3.999c-3.795 2.199-6.985 3.996-7.088 3.994-.103-.002-3.271-1.789-7.04-3.97l-6.853-3.966-.094-2.288-.094-2.29-2.347-1.364-2.347-1.365-.05 5.004c-.027 2.752.015 5.064.094 5.14.08.075 3.692 2.185 8.03 4.688 4.337 2.503 8.51 4.914 9.274 5.358 1.163.676 1.455.775 1.785.604.217-.112 3.21-1.84 3.21-1.84l7.134-4.133 6.243-3.614 1.924-1.116V55.162l-3.427-1.9-4.533 2.497 3.734 2.043-14.651 8.79L35.333 60.1l-2.768-1.829 13.898-8.2 1.876.92 4.616-2.742z" fill="url(#prefix__z)" transform="matrix(.53332 0 0 .53332 375.592 -1.34)"/><path style="mix-blend-mode:normal" d="M46.453 45.157l-16.986 9.69-1.808 1.114v6.384s18.755 10.652 15.42 8.781a122.301 122.301 0 003.334 1.872l9.457-5.455 4.467-2.577.11 5.524-.001 2.27-6.9 3.999c-3.795 2.199-6.985 3.996-7.088 3.994-.103-.002-3.271-1.789-7.04-3.97l-6.853-3.966-.094-2.288-.094-2.29-2.347-1.364-2.347-1.365-.05 5.004c-.027 2.751.015 5.064.094 5.14.08.075 3.692 2.185 8.03 4.688 4.336 2.503 8.51 4.914 9.274 5.358 1.163.676 1.455.775 1.785.604.216-.112 3.21-1.84 3.21-1.84l7.134-4.134 6.243-3.613 1.924-1.116V55.944l-3.427-1.9-4.533 2.497 3.734 2.043-14.651 8.79-11.117-6.492-2.768-1.829 13.898-8.2 1.876.92 4.616-2.742z" fill="url(#prefix__A)" transform="matrix(.53332 0 0 .53332 375.592 -1.34)"/><path style="mix-blend-mode:normal" d="M46.453 46.216l-16.986 9.69-1.808 1.113v6.384s18.755 10.653 15.42 8.782a122.301 122.301 0 003.334 1.87l9.457-5.454 4.467-2.577.11 5.524-.001 2.27-6.9 3.999c-3.795 2.199-6.985 3.996-7.088 3.994-.103-.002-3.271-1.789-7.04-3.97l-6.853-3.965-.094-2.29-.094-2.288-2.347-1.365-2.347-1.364-.05 5.003c-.027 2.752.015 5.065.094 5.14.08.076 3.692 2.185 8.03 4.688 4.336 2.503 8.51 4.914 9.274 5.359 1.163.675 1.455.774 1.785.604.216-.113 3.21-1.84 3.21-1.84l7.134-4.134 6.243-3.613 1.924-1.117V57.002l-3.427-1.9-4.533 2.498 3.734 2.042-14.651 8.791-11.117-6.493-2.768-1.828 13.898-8.201 1.876.92 4.616-2.742z" fill="url(#prefix__B)" transform="matrix(.53332 0 0 .53332 375.592 -1.34)"/><path style="mix-blend-mode:normal" d="M46.453 47.274l-16.986 9.69-1.808 1.114v6.383s18.755 10.653 15.42 8.782a122.301 122.301 0 003.334 1.871l9.457-5.455 4.467-2.576.11 5.523-.001 2.271-6.9 3.998c-3.795 2.2-6.985 3.996-7.088 3.994-.103-.002-3.271-1.788-7.04-3.97l-6.853-3.965-.094-2.289-.094-2.289-2.347-1.364-2.347-1.365-.05 5.003c-.027 2.752.015 5.065.094 5.14.08.076 3.692 2.186 8.03 4.689 4.336 2.502 8.51 4.914 9.274 5.358 1.163.676 1.455.775 1.785.604.216-.112 3.21-1.84 3.21-1.84l7.134-4.134 6.243-3.613 1.924-1.116V58.06l-3.427-1.9-4.533 2.497 3.734 2.042-14.651 8.791L35.333 63l-2.768-1.83 13.898-8.2 1.876.92 4.616-2.741z" fill="url(#prefix__C)" transform="matrix(.53332 0 0 .53332 375.592 -1.34)"/></g><g><path style="mix-blend-mode:normal" d="M46.453 44.376l-16.986 9.69-1.808 1.113v6.384s18.755 10.652 15.42 8.782a122.301 122.301 0 003.334 1.87l9.457-5.454 4.467-2.577.11 5.524-.001 2.27-6.9 3.999c-3.795 2.199-6.985 3.996-7.088 3.994-.103-.002-3.271-1.789-7.04-3.97l-6.853-3.966-.094-2.288-.094-2.29-2.347-1.364-2.347-1.365-.05 5.004c-.027 2.752.015 5.064.094 5.14.08.075 3.692 2.185 8.03 4.688 4.337 2.503 8.51 4.914 9.274 5.358 1.163.676 1.455.775 1.785.604.217-.112 3.21-1.84 3.21-1.84l7.134-4.133 6.243-3.614 1.924-1.116V55.162l-3.427-1.9-4.533 2.497 3.734 2.043-14.651 8.79L35.333 60.1l-2.768-1.829 13.898-8.2 1.876.92 4.616-2.742z" fill="url(#prefix__D)" transform="matrix(2.68355 0 0 2.68355 -56.988 -110.548)"/><path style="mix-blend-mode:normal" d="M46.453 45.157l-16.986 9.69-1.808 1.114v6.384s18.755 10.652 15.42 8.781a122.301 122.301 0 003.334 1.872l9.457-5.455 4.467-2.577.11 5.524-.001 2.27-6.9 3.999c-3.795 2.199-6.985 3.996-7.088 3.994-.103-.002-3.271-1.789-7.04-3.97l-6.853-3.966-.094-2.288-.094-2.29-2.347-1.364-2.347-1.365-.05 5.004c-.027 2.751.015 5.064.094 5.14.08.075 3.692 2.185 8.03 4.688 4.336 2.503 8.51 4.914 9.274 5.358 1.163.676 1.455.775 1.785.604.216-.112 3.21-1.84 3.21-1.84l7.134-4.134 6.243-3.613 1.924-1.116V55.944l-3.427-1.9-4.533 2.497 3.734 2.043-14.651 8.79-11.117-6.492-2.768-1.829 13.898-8.2 1.876.92 4.616-2.742z" fill="url(#prefix__E)" transform="matrix(2.68355 0 0 2.68355 -56.988 -110.548)"/><path style="mix-blend-mode:normal" d="M46.453 46.216l-16.986 9.69-1.808 1.113v6.384s18.755 10.653 15.42 8.782a122.301 122.301 0 003.334 1.87l9.457-5.454 4.467-2.577.11 5.524-.001 2.27-6.9 3.999c-3.795 2.199-6.985 3.996-7.088 3.994-.103-.002-3.271-1.789-7.04-3.97l-6.853-3.965-.094-2.29-.094-2.288-2.347-1.365-2.347-1.364-.05 5.003c-.027 2.752.015 5.065.094 5.14.08.076 3.692 2.185 8.03 4.688 4.336 2.503 8.51 4.914 9.274 5.359 1.163.675 1.455.774 1.785.604.216-.113 3.21-1.84 3.21-1.84l7.134-4.134 6.243-3.613 1.924-1.117V57.002l-3.427-1.9-4.533 2.498 3.734 2.042-14.651 8.791-11.117-6.493-2.768-1.828 13.898-8.201 1.876.92 4.616-2.742z" fill="url(#prefix__F)" transform="matrix(2.68355 0 0 2.68355 -56.988 -110.548)"/><path style="mix-blend-mode:normal" d="M46.453 47.274l-16.986 9.69-1.808 1.114v6.383s18.755 10.653 15.42 8.782a122.301 122.301 0 003.334 1.871l9.457-5.455 4.467-2.576.11 5.523-.001 2.271-6.9 3.998c-3.795 2.2-6.985 3.996-7.088 3.994-.103-.002-3.271-1.788-7.04-3.97l-6.853-3.965-.094-2.289-.094-2.289-2.347-1.364-2.347-1.365-.05 5.003c-.027 2.752.015 5.065.094 5.14.08.076 3.692 2.186 8.03 4.689 4.336 2.502 8.51 4.914 9.274 5.358 1.163.676 1.455.775 1.785.604.216-.112 3.21-1.84 3.21-1.84l7.134-4.134 6.243-3.613 1.924-1.116V58.06l-3.427-1.9-4.533 2.497 3.734 2.042-14.651 8.791L35.333 63l-2.768-1.83 13.898-8.2 1.876.92 4.616-2.741z" fill="url(#prefix__G)" transform="matrix(2.68355 0 0 2.68355 -56.988 -110.548)"/><path style="mix-blend-mode:normal" d="M46.453 47.274l-16.986 9.69-1.808 1.114v6.383s18.755 10.653 15.42 8.782a122.301 122.301 0 003.334 1.871l9.457-5.455 4.467-2.576.11 5.523-.001 2.271-6.9 3.998c-3.795 2.2-6.985 3.996-7.088 3.994-.103-.002-3.271-1.788-7.04-3.97l-6.853-3.965-.094-2.289-.094-2.289-2.347-1.364-2.347-1.365-.05 5.003c-.027 2.752.015 5.065.094 5.14.08.076 3.692 2.186 8.03 4.689 4.336 2.502 8.51 4.914 9.274 5.358 1.163.676 1.455.775 1.785.604.216-.112 3.21-1.84 3.21-1.84l7.134-4.134 6.243-3.613 1.924-1.116V58.06l-3.427-1.9-4.533 2.497 3.734 2.042-14.651 8.791L35.333 63l-2.768-1.83 13.898-8.2 1.876.92 4.616-2.741z" fill="url(#prefix__H)" transform="matrix(2.68355 0 0 2.68355 -56.988 -110.548)"/></g></svg>